# xmcd
#
# Track frame offsets: 
#        150
#        14689
#        38925
#        65982
#        86291
#        115812
#        143036
#        165198
#        189082
#        226067
#        261115
#        303940
#
# Disc length: 4444 seconds
#
# Revision: 4
# Processed by: cddbd v1.5.2PL0 Copyright (c) Steve Scherf et al.
# Submitted via: ExactAudioCopy v1.1
#
DISCID=91115a0c
DTITLE=David Gilmour - Live At Pompeii [Deluxe Box] [CD 1)
DYEAR=2017
DGENRE=Progressive Rock
TTITLE0=5 A.M. [live]
TTITLE1=Rattle That Lock [live]
TTITLE2=Faces Of Stone [live]
TTITLE3=What Do You Want From Me [live]
TTITLE4=The Blue [live]
TTITLE5=The Great Gig In The Sky [live]
TTITLE6=A Boat Lies Waiting [live]
TTITLE7=Wish You Were Here [live]
TTITLE8=Money [live]
TTITLE9=In Any Tongue [live]
TTITLE10=High Hopes [live]
TTITLE11=One Of These Days [live]
EXTD=YEAR: 2017
EXTT0=
EXTT1=
EXTT2=
EXTT3=
EXTT4=
EXTT5=
EXTT6=
EXTT7=
EXTT8=
EXTT9=
EXTT10=
EXTT11=
PLAYORDER=
